<svg width="100" height="100" viewBox="0 0 100 100" fill="none" xmlns="http://www.w3.org/2000/svg">
<g filter="url(#filter0_d_80505_25)">
<path fill-rule="evenodd" clip-rule="evenodd" d="M50 75C63.8071 75 75 63.8071 75 50C75 36.1929 63.8071 25 50 25C36.1929 25 25 36.1929 25 50C25 63.8071 36.1929 75 50 75ZM53.125 40.625C53.125 38.8991 51.7259 37.5 50 37.5C48.2741 37.5 46.875 38.8991 46.875 40.625V46.875H40.625C38.8991 46.875 37.5 48.2741 37.5 50C37.5 51.7259 38.8991 53.125 40.625 53.125H46.875V59.375C46.875 61.1009 48.2741 62.5 50 62.5C51.7259 62.5 53.125 61.1009 53.125 59.375V53.125H59.375C61.1009 53.125 62.5 51.7259 62.5 50C62.5 48.2741 61.1009 46.875 59.375 46.875H53.125V40.625Z" fill="black"/>
</g>
<defs>
<filter id="filter0_d_80505_25" x="-4" y="0" width="108" height="108" filterUnits="userSpaceOnUse" color-interpolation-filters="sRGB">
<feFlood flood-opacity="0" result="BackgroundImageFix"/>
<feColorMatrix in="SourceAlpha" type="matrix" values="0 0 0 0 0 0 0 0 0 0 0 0 0 0 0 0 0 0 127 0" result="hardAlpha"/>
<feOffset dy="4"/>
<feGaussianBlur stdDeviation="2"/>
<feComposite in2="hardAlpha" operator="out"/>
<feColorMatrix type="matrix" values="0 0 0 0 0 0 0 0 0 0 0 0 0 0 0 0 0 0 0.25 0"/>
<feBlend mode="normal" in2="BackgroundImageFix" result="effect1_dropShadow_80505_25"/>
<feBlend mode="normal" in="SourceGraphic" in2="effect1_dropShadow_80505_25" result="shape"/>
</filter>
</defs>
</svg>
